<?xml version="1.0" ?><svg data-name="Layer 1" id="Layer_1" viewBox="0 0 272 272" xmlns="http://www.w3.org/2000/svg"><defs><style>.cls-1{fill:#efefef;}.cls-2{fill:#4fc2f8;}.cls-3{fill:#f3f4f2;}</style></defs><title/><path class="cls-1" d="M90,264h84a27.66,27.66,0,0,0,27.6-25.93L216,8H48L62.38,238.07A27.66,27.66,0,0,0,90,264Z"/><path class="cls-2" d="M61.5,72l9.58,153.31A24.2,24.2,0,0,0,95.23,248h73.53a24.2,24.2,0,0,0,24.15-22.69L202.5,72Z"/><rect class="cls-1" height="23.07" rx="4" ry="4" transform="translate(-27.05 28.19) rotate(-15)" width="23.07" x="82" y="105.31"/><rect class="cls-1" height="23.07" rx="4" ry="4" transform="matrix(0.97, 0.26, -0.26, 0.97, 37.3, -33.67)" width="23.07" x="135" y="113.31"/><rect class="cls-1" height="23.07" rx="4" ry="4" transform="translate(-20.16 17.54) rotate(-7.68)" width="23.07" x="109" y="147.31"/><path class="cls-3" d="M181.22,179.75l-2,32a4,4,0,0,0,4,4.25h0a4,4,0,0,0,4-3.75l2-32a4,4,0,0,0-4-4.25h0A4,4,0,0,0,181.22,179.75Z"/><path class="cls-3" d="M190.2,164.25l7-112a4,4,0,0,0-4-4.25h0a4,4,0,0,0-4,3.75l-7,112a4,4,0,0,0,4,4.25h0A4,4,0,0,0,190.2,164.25Z"/></svg>